<svg width="24" height="24" viewBox="0 0 24 24" fill="none" xmlns="http://www.w3.org/2000/svg">
<g clip-path="url(#clip0_177_225073)">
<path fill-rule="evenodd" clip-rule="evenodd" d="M23.52 12.7182C23.52 11.8673 23.4436 11.0491 23.3018 10.2637H12V14.9055H18.4582C18.18 16.4055 17.3345 17.6764 16.0636 18.5273V21.5382H19.9418C22.2109 19.4491 23.52 16.3728 23.52 12.7182Z" fill="#4285F4"/>
<path fill-rule="evenodd" clip-rule="evenodd" d="M12.001 24.4466C15.241 24.4466 17.9573 23.372 19.9428 21.5393L16.0646 18.5284C14.9901 19.2484 13.6155 19.6738 12.001 19.6738C8.87553 19.6738 6.23007 17.5629 5.28643 14.7266H1.27734V17.8357C3.25189 21.7575 7.31007 24.4466 12.001 24.4466Z" fill="#34A853"/>
<path fill-rule="evenodd" clip-rule="evenodd" d="M5.28545 14.7257C5.04545 14.0057 4.90909 13.2366 4.90909 12.4457C4.90909 11.6548 5.04545 10.8857 5.28545 10.1657V7.05664H1.27636C0.463636 8.67664 0 10.5094 0 12.4457C0 14.3821 0.463636 16.2148 1.27636 17.8348L5.28545 14.7257Z" fill="#FBBC05"/>
<path fill-rule="evenodd" clip-rule="evenodd" d="M12.001 5.21804C13.7628 5.21804 15.3446 5.82349 16.5883 7.01259L20.0301 3.57077C17.9519 1.6344 15.2355 0.445312 12.001 0.445312C7.31007 0.445312 3.25189 3.1344 1.27734 7.05622L5.28643 10.1653C6.23007 7.32895 8.87553 5.21804 12.001 5.21804Z" fill="#EA4335"/>
</g>
<defs>
<clipPath id="clip0_177_225073">
<rect width="24" height="24" fill="white"/>
</clipPath>
</defs>
</svg>
