<svg width="168" height="24" viewBox="0 0 168 24" fill="none" xmlns="http://www.w3.org/2000/svg">
<mask id="mask0_177_225052" style="mask-type:alpha" maskUnits="userSpaceOnUse" x="0" y="0" width="24" height="24">
<rect width="23.9999" height="23.9999" fill="#D9D9D9"/>
</mask>
<g mask="url(#mask0_177_225052)">
<path d="M3.24999 17.6344V16.1344H20.7499V17.6344H3.24999ZM3.24999 12.7498V11.2498H20.7499V12.7498H3.24999ZM3.24999 7.86519V6.36522H20.7499V7.86519H3.24999Z" fill="#FCFCFD"/>
</g>
<path d="M161.456 3.96186C161.608 3.96186 161.76 3.96186 161.912 3.96186C162.597 3.96186 162.902 4.11424 162.902 4.72376C162.902 4.79995 162.902 5.02852 162.749 5.56185L160.771 18.7428C160.619 19.8094 160.542 20.1904 159.553 20.1904C159.401 20.1904 159.249 20.1904 159.02 20.1904L161.456 3.96186ZM157.118 0.152343L153.617 23.9237H159.325C161.836 23.9237 163.434 23.8475 164.424 22.857C165.337 22.0189 165.489 20.7999 165.717 18.9713L167.772 5.02852C167.924 3.96186 168 3.19995 168 2.74281C168 0.380914 166.25 0.152343 162.749 0.152343H157.118ZM143.953 0.152343L140.452 23.9237H144.714L146.464 12.2666H146.692L147.301 23.9237H151.867L155.368 0.152343H151.106L149.28 12.3428H149.051L148.519 0.152343H143.953ZM134.669 0.152343L131.168 23.9237H139.082L139.615 20.038H136.647L137.713 12.7999H140.68L141.289 8.91422H138.321L139.082 3.96186H142.05L142.659 0.152343H134.669ZM125.993 3.96186H126.374C127.135 3.96186 127.363 4.03805 127.363 4.64757C127.363 4.64757 127.363 5.02852 127.211 5.56185L126.754 8.53327C126.602 9.67613 126.526 10.1333 125.461 10.1333C125.308 10.1333 125.156 10.1333 124.928 10.1333L125.993 3.96186ZM121.656 0.152343L118.155 23.9237H123.101L124.471 14.4761H124.852C125.613 14.4761 125.917 14.6285 125.917 15.238C125.917 15.3904 125.917 15.619 125.917 15.7713L124.7 23.9237H129.646L130.787 16.2285C130.864 15.6952 130.94 15.238 130.94 14.7809C130.94 13.4856 130.407 12.7999 129.113 12.3428C131.472 11.5809 131.777 10.1333 132.157 7.5428L132.538 5.10471C132.69 4.19043 132.766 3.42852 132.766 2.819C132.766 0.457104 131.168 0.152343 127.515 0.152343H121.656ZM110.393 0.152343L109.784 4.03805H112.371L109.403 23.8475H114.35L117.318 4.03805H119.905L120.514 0.152343H110.393Z" fill="#E90C17"/>
<path d="M102.249 3.96189H102.63C103.391 3.96189 103.619 4.03808 103.619 4.64761C103.619 4.64761 103.619 5.02856 103.467 5.56189L103.163 8.53331C103.01 9.67616 102.934 10.1333 101.869 10.1333C101.717 10.1333 101.565 10.1333 101.336 10.1333L102.249 3.96189ZM97.9117 0.152381L94.4111 23.9237H99.3576L100.651 14.4761H101.032C101.793 14.4761 102.097 14.6285 102.097 15.2381C102.097 15.3904 102.097 15.619 102.097 15.7714L100.88 23.9237H105.826L106.968 16.2285C107.044 15.6952 107.12 15.2381 107.12 14.7809C107.12 13.4857 106.587 12.8 105.293 12.3428C107.652 11.5809 107.957 10.1333 108.337 7.54284L108.718 5.10475C108.87 4.19046 108.946 3.42856 108.946 2.81904C108.946 0.457141 107.348 0.152381 103.695 0.152381H97.9117ZM90.3779 5.02856L88.3232 18.8952C88.171 19.6571 88.0949 20.1142 87.41 20.1142C86.9534 20.1142 86.8012 19.8857 86.8012 19.4285C86.8012 19.2761 86.8012 19.1238 86.8012 18.8952L88.8559 5.02856C89.0081 4.26665 89.0842 3.8857 89.7691 3.8857C90.3018 3.8857 90.5301 4.11427 90.5301 4.57142C90.454 4.64761 90.454 4.79999 90.3779 5.02856ZM95.3243 4.87618C95.4765 3.8857 95.5526 3.1238 95.5526 2.59047C95.5526 0.152381 93.8784 0 90.3779 0C87.7905 0 86.1924 0 85.2031 1.06666C84.366 1.90476 84.2138 3.19999 83.9094 4.87618L81.8547 19.0476C81.7025 20.1904 81.6264 21.0285 81.6264 21.638C81.6264 23.7714 83.4528 23.9999 86.8012 23.9999C89.3886 23.9999 90.9106 23.9237 91.8998 22.9333C92.813 22.019 92.9652 20.7999 93.1935 19.0476L95.3243 4.87618ZM73.4837 0.152381L72.8749 4.03808H75.4623L72.4944 23.8476H77.4409L80.4088 4.03808H82.9962L83.605 0.152381H73.4837ZM66.6348 5.02856L64.5801 18.8952C64.4279 19.6571 64.3518 20.1142 63.6669 20.1142C63.2103 20.1142 63.0581 19.8857 63.0581 19.4285C63.0581 19.2761 63.0581 19.1238 63.0581 18.8952L65.1128 5.02856C65.265 4.26665 65.3411 3.8857 66.026 3.8857C66.5587 3.8857 66.787 4.11427 66.787 4.57142C66.7109 4.64761 66.7109 4.79999 66.6348 5.02856ZM71.5812 4.87618C71.7334 3.8857 71.8095 3.1238 71.8095 2.51428C71.8856 0.152381 70.1353 0 66.6348 0C64.0474 0 62.4493 0 61.46 1.06666C60.6229 1.90476 60.4707 3.19999 60.2424 4.87618L58.1116 19.0476C57.9594 20.1904 57.8833 21.0285 57.8833 21.638C57.8833 23.7714 59.7097 23.9999 63.0581 23.9999C65.6455 23.9999 67.1675 23.9237 68.1568 22.9333C69.07 22.019 69.2222 20.7999 69.4505 19.0476L71.5812 4.87618ZM43.5005 0.152381L39.9999 23.8476H44.4898L46.5445 10.1333H46.6967L46.4684 23.8476H49.2079L53.0129 10.1333H53.2412L51.1865 23.8476H55.6003L59.177 0.0761903H53.1651L49.6645 12.1904H49.4362L49.5884 0.152381H43.5005Z" fill="#E90C17"/>
</svg>
