<svg width="45" height="46" viewBox="0 0 45 46" fill="none" xmlns="http://www.w3.org/2000/svg">
<g clip-path="url(#clip0_70_934)">
<path d="M20.7992 2.1001C21.5992 0.600097 22.8992 0.600097 23.6992 2.1001C24.4992 3.6001 26.1992 3.8001 27.3992 2.7001C28.5992 1.6001 29.8992 1.9001 30.1992 3.6001C30.4992 5.3001 31.9992 6.0001 33.4992 5.3001C35.0992 4.6001 36.1992 5.3001 35.9992 7.0001C35.7992 8.7001 36.9992 9.9001 38.5992 9.6001C40.2992 9.4001 40.9992 10.4001 40.2992 12.0001C39.5992 13.6001 40.2992 15.0001 41.9992 15.3001C43.6992 15.6001 44.0992 16.9001 42.8992 18.1001C41.6992 19.3001 41.9992 21.0001 43.4992 21.8001C44.9992 22.6001 44.9992 23.9001 43.4992 24.7001C41.9992 25.5001 41.7992 27.2001 42.8992 28.4001C44.0992 29.6001 43.6992 30.9001 41.9992 31.2001C40.2992 31.5001 39.5992 33.0001 40.2992 34.5001C40.9992 36.0001 40.1992 37.1001 38.5992 36.9001C36.8992 36.7001 35.6992 37.9001 35.9992 39.5001C36.1992 41.2001 35.1992 41.9001 33.5992 41.2001C32.0992 40.5001 30.5992 41.2001 30.2992 42.9001C29.9992 44.6001 28.6992 45.0001 27.4992 43.8001C26.2992 42.6001 24.5992 42.9001 23.7992 44.4001C22.9992 45.9001 21.6992 45.9001 20.8992 44.4001C20.0992 42.9001 18.3992 42.7001 17.1992 43.8001C15.9992 45.0001 14.6992 44.6001 14.3992 42.9001C14.0992 41.2001 12.5992 40.5001 11.0992 41.2001C9.59922 41.9001 8.49922 41.1001 8.69922 39.5001C8.89922 37.8001 7.69922 36.6001 6.09922 36.9001C4.39922 37.1001 3.69922 36.1001 4.39922 34.5001C5.09922 33.0001 4.39922 31.5001 2.69922 31.2001C0.999218 30.9001 0.599218 29.6001 1.79922 28.4001C2.99922 27.2001 2.69922 25.5001 1.19922 24.7001C-0.300781 23.9001 -0.300781 22.6001 1.19922 21.8001C2.69922 21.0001 2.89922 19.3001 1.79922 18.1001C0.699219 16.9001 0.999218 15.6001 2.69922 15.3001C4.29922 15.1001 4.99922 13.6001 4.29922 12.0001C3.59922 10.4001 4.29922 9.4001 5.99922 9.7001C7.69922 10.0001 8.89922 8.7001 8.59922 7.1001C8.29922 5.5001 9.49922 4.6001 10.9992 5.3001C12.4992 6.0001 13.9992 5.3001 14.2992 3.6001C14.5992 1.9001 15.8992 1.5001 17.0992 2.7001C18.2992 3.9001 19.9992 3.6001 20.7992 2.1001Z" fill="url(#paint0_radial_70_934)"/>
<path d="M41.4001 23.3999C41.4001 33.9999 32.8001 42.4999 22.2001 42.3999C11.6001 42.3999 3.10009 33.7999 3.20009 23.1999C3.20009 12.5999 11.8001 4.09985 22.4001 4.19985C32.9001 4.19985 41.5001 12.7999 41.4001 23.3999Z" fill="url(#paint1_radial_70_934)"/>
<path d="M41.4001 23.3999C41.4001 33.9999 32.8001 42.4999 22.2001 42.3999C11.6001 42.3999 3.10009 33.7999 3.20009 23.1999C3.20009 12.5999 11.8001 4.09985 22.4001 4.19985C32.9001 4.19985 41.5001 12.7999 41.4001 23.3999Z" fill="url(#paint2_radial_70_934)"/>
<path d="M40.9992 23.4C40.9992 33.7 32.5992 42 22.2992 42C11.9992 42 3.69922 33.5999 3.69922 23.2999C3.69922 12.9999 12.0992 4.69995 22.3992 4.69995C32.6992 4.69995 40.9992 13.0999 40.9992 23.4Z" fill="url(#paint3_radial_70_934)"/>
<path d="M22.4 4.3C11.9 4.3 3.3 12.8 3.3 23.3C3.3 33.8 11.8 42.4 22.3 42.4C32.8 42.4 41.4 33.9 41.4 23.4C41.4 12.9 32.9 4.3 22.4 4.3ZM22.2 42.6C11.6 42.6 3 33.9 3 23.2C3.1 12.6 11.7 4 22.4 4C33.1 4 41.7 12.7 41.6 23.4C41.6 34 32.9 42.6 22.2 42.6Z" fill="url(#paint4_radial_70_934)"/>
<path d="M16.7 22.7999L16.4 24.2999H18.3L18 25.9999H16.1L15.7 28.6999H14L14.4 25.9999H12.7L12.3 28.6999H10.6L11 25.9999H9L9.3 24.2999H11.2L11.5 22.7999H9.5L9.8 21.0999H11.7L12.1 18.3999H13.8L13.4 21.0999H15.1L15.5 18.3999H17.2L16.8 21.0999H18.6L18.3 22.7999H16.7ZM14.9 22.7999H13.2L12.9 24.2999H14.6L14.9 22.7999Z" fill="url(#paint5_linear_70_934)"/>
<path d="M30.6008 11.8L27.1008 36.2H20.4008L23.0008 18.5L19.3008 19.5L20.4008 13.3L24.6008 11.7H30.6008V11.8Z" fill="url(#paint6_linear_70_934)"/>
</g>
<defs>
<radialGradient id="paint0_radial_70_934" cx="0" cy="0" r="1" gradientUnits="userSpaceOnUse" gradientTransform="translate(26.6709 20.824) scale(36.8548 36.8548)">
<stop stop-color="#FAF7CA"/>
<stop offset="0.0211278" stop-color="#FAF7CA"/>
<stop offset="0.1698" stop-color="#FAF7CA"/>
<stop offset="0.2067" stop-color="#F9F3C1"/>
<stop offset="0.2856" stop-color="#F7E9A6"/>
<stop offset="0.4568" stop-color="#F3D467"/>
<stop offset="0.4783" stop-color="#F2D15D"/>
<stop offset="0.6563" stop-color="#BE9236"/>
<stop offset="0.7525" stop-color="#AA7B2C"/>
<stop offset="0.8349" stop-color="#9A6427"/>
<stop offset="0.8948" stop-color="#915924"/>
</radialGradient>
<radialGradient id="paint1_radial_70_934" cx="0" cy="0" r="1" gradientUnits="userSpaceOnUse" gradientTransform="translate(29.2508 21.0794) rotate(0.208705) scale(46.9092 46.9043)">
<stop stop-color="#FFEFB9"/>
<stop offset="0.0494481" stop-color="#F7E69C"/>
<stop offset="0.1007" stop-color="#F2DF86"/>
<stop offset="0.145" stop-color="#EEDB78"/>
<stop offset="0.1769" stop-color="#EDD973"/>
<stop offset="0.2745" stop-color="#EAD570"/>
<stop offset="0.3403" stop-color="#E2CA69"/>
<stop offset="0.3968" stop-color="#D6BA5E"/>
<stop offset="0.448" stop-color="#C8A550"/>
<stop offset="0.4956" stop-color="#B68B40"/>
<stop offset="0.54" stop-color="#A27030"/>
<stop offset="0.5752" stop-color="#915924"/>
<stop offset="1" stop-color="#AA7B2C"/>
</radialGradient>
<radialGradient id="paint2_radial_70_934" cx="0" cy="0" r="1" gradientUnits="userSpaceOnUse" gradientTransform="translate(15.6697 29.736) rotate(0.208705) scale(37.1803 37.1764)">
<stop offset="0.1475" stop-color="#F2D15D"/>
<stop offset="0.5118" stop-color="#A7832E"/>
<stop offset="1" stop-color="#915924"/>
</radialGradient>
<radialGradient id="paint3_radial_70_934" cx="0" cy="0" r="1" gradientUnits="userSpaceOnUse" gradientTransform="translate(29.3263 20.5677) rotate(0.208705) scale(49.2103 49.2052)">
<stop stop-color="#FAF7CA"/>
<stop offset="0.0211278" stop-color="#FAF7CA"/>
<stop offset="0.1698" stop-color="#FAF7CA"/>
<stop offset="0.2249" stop-color="#F9F0BB"/>
<stop offset="0.3338" stop-color="#F6E396"/>
<stop offset="0.4783" stop-color="#F2D15D"/>
<stop offset="0.6563" stop-color="#BE9236"/>
<stop offset="0.7525" stop-color="#AA7B2C"/>
<stop offset="0.8349" stop-color="#9A6427"/>
<stop offset="0.8948" stop-color="#915924"/>
</radialGradient>
<radialGradient id="paint4_radial_70_934" cx="0" cy="0" r="1" gradientUnits="userSpaceOnUse" gradientTransform="translate(29.5669 20.4731) rotate(0.208705) scale(45.0758 45.0711)">
<stop stop-color="#FAF7CA"/>
<stop offset="0.0211278" stop-color="#FAF7CA"/>
<stop offset="0.1698" stop-color="#FAF7CA"/>
<stop offset="0.2249" stop-color="#F9F0BB"/>
<stop offset="0.3338" stop-color="#F6E396"/>
<stop offset="0.4783" stop-color="#F2D15D"/>
<stop offset="0.6563" stop-color="#BE9236"/>
<stop offset="0.7525" stop-color="#AA7B2C"/>
<stop offset="0.8349" stop-color="#9A6427"/>
<stop offset="0.8948" stop-color="#915924"/>
</radialGradient>
<linearGradient id="paint5_linear_70_934" x1="13.903" y1="12.7717" x2="13.903" y2="38.3484" gradientUnits="userSpaceOnUse">
<stop stop-color="#754C29"/>
<stop offset="1" stop-color="#8B5E3C"/>
</linearGradient>
<linearGradient id="paint6_linear_70_934" x1="24.9191" y1="12.7718" x2="24.9191" y2="38.3485" gradientUnits="userSpaceOnUse">
<stop stop-color="#754C29"/>
<stop offset="1" stop-color="#8B5E3C"/>
</linearGradient>
<clipPath id="clip0_70_934">
<rect width="45" height="46" fill="white"/>
</clipPath>
</defs>
</svg>
