<svg width="24" height="25" viewBox="0 0 24 25" fill="none" xmlns="http://www.w3.org/2000/svg">
<path fill-rule="evenodd" clip-rule="evenodd" d="M18.5552 13.197C18.5251 10.1585 21.0333 8.70045 21.1454 8.62826C19.7356 6.56602 17.5391 6.28256 16.7565 6.25069C14.8874 6.06199 13.1099 7.35176 12.1603 7.35176C11.2133 7.35176 9.74991 6.279 8.20014 6.30739C6.16314 6.3375 4.28514 7.49216 3.23503 9.31657C1.11872 12.9883 2.69372 18.4305 4.75644 21.4078C5.76407 22.8659 6.96572 24.5038 8.54383 24.4453C10.063 24.3855 10.6379 23.4612 12.4756 23.4612C14.3129 23.4612 14.8289 24.4453 16.4371 24.4139C18.0724 24.3838 19.1083 22.9275 20.1093 21.4645C21.2676 19.7725 21.7424 18.1364 21.7712 18.0522C21.7348 18.0358 18.5826 16.8285 18.5507 13.1983L18.5552 13.197ZM15.5345 4.27789C16.3716 3.26227 16.9372 1.85246 16.7826 0.445312C15.5765 0.494475 14.114 1.2492 13.2481 2.2635C12.4708 3.16395 11.7918 4.599 11.9734 5.97735C13.3203 6.08235 14.6956 5.29305 15.5331 4.27965L15.5345 4.27789Z" fill="white"/>
</svg>
